<svg xmlns="http://www.w3.org/2000/svg" xmlns:xlink="http://www.w3.org/1999/xlink" fill="none" viewBox="0 0 24 24">
  <g clip-path="url(#a)">
    <path fill="#4285F4" d="M23.766 12.276c0-.815-.066-1.635-.207-2.438H12.24v4.621h6.482a5.56 5.56 0 0 1-2.399 3.647v2.998h3.867c2.271-2.09 3.576-5.177 3.576-8.828"/>
    <path fill="#34A853" d="M12.24 24c3.236 0 5.966-1.062 7.954-2.896l-3.867-2.998c-1.075.731-2.464 1.146-4.083 1.146-3.13 0-5.785-2.112-6.737-4.952h-3.99v3.091a12 12 0 0 0 10.723 6.61z"/>
    <path fill="#FBBC04" d="M5.503 14.3a7.2 7.2 0 0 1 0-4.594V6.615H1.517a12.01 12.01 0 0 0 0 10.776z"/>
    <path fill="#EA4335" d="M12.24 4.75a6.52 6.52 0 0 1 4.603 1.799l3.426-3.426A11.53 11.53 0 0 0 12.24 0 12 12 0 0 0 1.516 6.615l3.987 3.09C6.45 6.863 9.109 4.75 12.24 4.75"/>
  </g>
  <defs>
    <clipPath id="a">
      <path fill="#fff" d="M0 0h24v24H0z"/>
    </clipPath>
  </defs>
</svg>
