<svg xmlns="http://www.w3.org/2000/svg" viewBox="0 0 48 48" fill="none">
  <path d="M12 28a4 4 0 0 1-4-4 4 4 0 0 1 4-4h4v4a4 4 0 0 1-4 4z" fill="#E01E5A"/>
  <path d="M16 24a4 4 0 0 1 4-4 4 4 0 0 1 4 4v10a4 4 0 0 1-4 4 4 4 0 0 1-4-4V24z" fill="#E01E5A"/>
  <path d="M20 12a4 4 0 0 1 4 4 4 4 0 0 1-4 4h-4v-4a4 4 0 0 1 4-4z" fill="#36C5F0"/>
  <path d="M24 16a4 4 0 0 1 4-4 4 4 0 0 1 4 4v4h-4a4 4 0 0 1-4-4z" fill="#36C5F0"/>
  <path d="M36 20a4 4 0 0 1 4 4 4 4 0 0 1-4 4h-4v-4a4 4 0 0 1 4-4z" fill="#2EB67D"/>
  <path d="M32 24a4 4 0 0 1-4 4 4 4 0 0 1-4-4V14a4 4 0 0 1 4-4 4 4 0 0 1 4 4v10z" fill="#2EB67D"/>
  <path d="M28 36a4 4 0 0 1-4-4 4 4 0 0 1 4-4h4v4a4 4 0 0 1-4 4z" fill="#ECB22E"/>
  <path d="M24 32a4 4 0 0 1-4 4 4 4 0 0 1-4-4v-4h4a4 4 0 0 1 4 4z" fill="#ECB22E"/>
</svg>
